<svg id="mail" xmlns="http://www.w3.org/2000/svg" viewBox="0 0 600 600">
  <defs>
    <style>
      .cls-1 {
        stroke: #fff;
        stroke-miterlimit: 10;
        stroke-width: 20px;
      }
    </style>
  </defs>
  <title>mail</title>
  <path class="cls-1" d="M494.76,104.12H105A81.89,81.89,0,0,0,61.09,116.8l195.3,242.72c25.52,25.94,51.88,28.1,79.34-1.09L540.59,118.79,335.73,358.43c-27.46,29.19-53.82,27-79.34,1.09L61.09,116.8a82.17,82.17,0,0,0-38.37,69.55V413.14A82.24,82.24,0,0,0,105,495.37h389.8A82.24,82.24,0,0,0,577,413.14V186.35A82.23,82.23,0,0,0,494.76,104.12Z"/>
</svg>
