<svg id="vk" xmlns="http://www.w3.org/2000/svg" viewBox="0 0 600 600">
  <title>vk</title>
  <path d="M104.68,134H46.34c-21.25-.5-26.21,9.87-22.68,25.92C69.84,313.07,171.92,475.12,324.24,463.77c11.78-1.53,20.24-6.1,22.69-16.2V374.65c1.62-8.1,20.05-12.38,40.51,1.62,31.48,23.54,59,48.72,81,76.16,6.48,9.72,8.42,10.25,16.21,11.34h74.54c10.78-.64,16.84-5.93,17.82-16.2,3.24-14.58-55.09-84.26-98.84-129.63-3.23-5.1-4.05-10-1.63-14.59,41.27-54.84,72.71-104.84,89.13-147.46,2.19-11.22-.63-19.68-9.72-21.06H483.05c-9.37-1.68-16.78,3.13-22.69,13-23.7,58.15-53.92,107.68-94,144.22-11.34,4.62-17,.68-19.45-8.1V152.65c.33-12.24-5.58-16.9-14.58-17.82H231.88c-34,11.34,9.72,34,9.72,68.06l1.62,106.94c-4.83,11.95-12.09,13-21.06,6.49-30.79-19.45-81-124.78-98.85-173.39C120.07,131.59,116,135.11,104.68,134Z"/>
</svg>
