<svg id="web" xmlns="http://www.w3.org/2000/svg" viewBox="0 0 600 600">
  <defs>
    <style>
      .cls-1 {
        stroke: #fff;
        stroke-linecap: round;
        stroke-linejoin: round;
        stroke-width: 20px;
      }
    </style>
  </defs>
  <title>web</title>
  <g>
    <path class="cls-1" d="M222,215.47H379c-12-61.9-38.27-123.36-79.47-184.36C260.94,93,234.93,154.41,222,215.47Z"/>
    <path class="cls-1" d="M379,215.47H562.2C525.93,108.21,422.12,30.76,299.71,30.76l-.22.35C340.69,92.11,367,153.57,379,215.47Z"/>
    <path class="cls-1" d="M220.17,384.39H376.8c12.12-56.66,13-113,2.16-168.92H222C210,272.13,209.22,328.44,220.17,384.39Z"/>
    <path class="cls-1" d="M299.71,30.76h-.45l.23.34Z"/>
    <path class="cls-1" d="M299.47,567.89c38.38-61.56,64.32-122.73,77.33-183.5H220.17C232.23,446,258.46,507.17,299.47,567.89Z"/>
    <path class="cls-1" d="M222,215.47H37.21a262.84,262.84,0,0,0,.28,168.92H220.17C209.22,328.44,210,272.13,222,215.47Z"/>
    <path class="cls-1" d="M299.47,567.89l.24.35c122.09,0,225.67-77,262.21-183.85H376.8C363.79,445.16,337.85,506.33,299.47,567.89Z"/>
    <path class="cls-1" d="M299.49,31.11l-.23-.34C177,31,73.44,108.34,37.21,215.47H222C234.93,154.41,260.94,93,299.49,31.11Z"/>
    <path class="cls-1" d="M562.2,215.47H379c10.83,56,10,112.26-2.16,168.92H561.92a262.84,262.84,0,0,0,.28-168.92Z"/>
    <path class="cls-1" d="M299.26,568.23h.45l-.24-.35Z"/>
    <path class="cls-1" d="M220.17,384.39H37.49C74,491.08,177.36,568.05,299.26,568.23l.21-.34C258.46,507.17,232.23,446,220.17,384.39Z"/>
  </g>
</svg>
